<svg width="565" height="450" viewBox="0 0 565 450" fill="none" xmlns="http://www.w3.org/2000/svg">
<g clip-path="url(#clip0_54_2)">
<path d="M239.346 431.63C241.412 431.759 242.553 429.193 240.99 427.697L240.835 427.079C240.855 427.029 240.876 426.98 240.897 426.93C242.986 421.948 250.067 421.983 252.138 426.972C253.977 431.4 256.318 435.836 256.894 440.518C257.152 442.585 257.036 444.69 256.577 446.718C260.885 437.308 263.153 427.032 263.153 416.698C263.153 414.101 263.01 411.505 262.72 408.915C262.481 406.796 262.151 404.69 261.725 402.604C259.419 391.327 254.427 380.586 247.225 371.615C243.763 369.722 240.876 366.764 239.132 363.218C238.506 361.939 238.015 360.564 237.782 359.162C238.176 359.214 239.268 353.213 238.971 352.845C239.52 352.012 240.502 351.598 241.102 350.785C244.084 346.741 248.193 347.447 250.338 352.942C254.92 355.255 254.965 359.09 252.153 362.779C250.364 365.126 250.119 368.301 248.549 370.814C248.711 371.02 248.878 371.221 249.04 371.427C252.001 375.225 254.562 379.307 256.721 383.596C256.111 378.83 257.012 373.088 258.547 369.386C260.296 365.169 263.572 361.617 266.458 357.971C269.924 353.592 277.031 355.503 277.642 361.055C277.648 361.108 277.654 361.162 277.659 361.216C277.231 361.458 276.811 361.715 276.401 361.986C274.061 363.533 274.87 367.16 277.642 367.588L277.704 367.597C277.549 369.141 277.285 370.672 276.897 372.177C280.599 386.492 272.607 391.706 261.196 391.941C260.944 392.07 260.698 392.199 260.446 392.322C261.602 395.577 262.526 398.916 263.211 402.301C263.824 405.291 264.251 408.314 264.49 411.35C264.787 415.18 264.761 419.029 264.438 422.853L264.457 422.717C265.277 418.506 267.564 414.573 270.884 411.847C275.829 407.784 282.817 406.288 288.152 403.023C290.72 401.451 294.012 403.482 293.563 406.46L293.541 406.602C292.747 406.925 291.972 407.3 291.223 407.72C290.794 407.962 290.374 408.218 289.964 408.49C287.625 410.037 288.433 413.663 291.205 414.091L291.268 414.101C291.313 414.107 291.352 414.114 291.397 414.12C290.034 417.356 288.135 420.36 285.759 422.95C283.444 435.447 273.503 436.633 262.868 432.993H262.862C261.699 438.057 260.001 443.004 257.817 447.719H239.797C239.733 447.519 239.675 447.313 239.616 447.112C241.283 447.216 242.962 447.119 244.603 446.815C243.266 445.175 241.929 443.521 240.592 441.881C240.559 441.848 240.534 441.816 240.508 441.784C239.83 440.944 239.145 440.111 238.467 439.271L238.466 439.27C238.424 436.693 238.733 434.123 239.346 431.63Z" fill="#F2F2F2"/>
<path d="M0 448.075C0 448.735 0.53003 449.265 1.19006 449.265H404.48C405.14 449.265 405.67 448.735 405.67 448.075C405.67 447.415 405.14 446.885 404.48 446.885H1.19006C0.53003 446.885 0 447.415 0 448.075Z" fill="#CCCCCC"/>
<path d="M544.743 449H338.192C327.316 449 318.468 440.151 318.468 429.275V19.7246C318.468 8.84863 327.316 0 338.192 0H544.743C555.619 0 564.468 8.84863 564.468 19.7246V429.275C564.468 440.151 555.619 449 544.743 449ZM338.192 2C328.403 2 320.468 9.93536 320.468 19.7241V429.275C320.468 439.064 328.403 447 338.192 447H544.743C554.532 447 562.468 439.064 562.468 429.275V150.705C562.468 68.5774 495.89 2 413.763 2H338.192Z" fill="#75B8F6"/>
<path d="M377.134 202.118C390.389 202.118 401.134 191.373 401.134 178.118C401.134 164.863 390.389 154.118 377.134 154.118C363.879 154.118 353.134 164.863 353.134 178.118C353.134 191.373 363.879 202.118 377.134 202.118Z" fill="#294ABD"/>
<path d="M505.801 202.118C519.055 202.118 529.801 191.373 529.801 178.118C529.801 164.863 519.055 154.118 505.801 154.118C492.546 154.118 481.801 164.863 481.801 178.118C481.801 191.373 492.546 202.118 505.801 202.118Z" fill="#294ABD"/>
<path d="M441.467 202.118C454.722 202.118 465.467 191.373 465.467 178.118C465.467 164.863 454.722 154.118 441.467 154.118C428.212 154.118 417.467 164.863 417.467 178.118C417.467 191.373 428.212 202.118 441.467 202.118Z" fill="#294ABD"/>
<path d="M377.134 271.118C390.389 271.118 401.134 260.373 401.134 247.118C401.134 233.863 390.389 223.118 377.134 223.118C363.879 223.118 353.134 233.863 353.134 247.118C353.134 260.373 363.879 271.118 377.134 271.118Z" fill="#294ABD"/>
<path d="M505.801 271.118C519.056 271.118 529.801 260.373 529.801 247.118C529.801 233.863 519.056 223.118 505.801 223.118C492.546 223.118 481.801 233.863 481.801 247.118C481.801 260.373 492.546 271.118 505.801 271.118Z" fill="#294ABD"/>
<path d="M441.467 271.118C454.722 271.118 465.467 260.373 465.467 247.118C465.467 233.863 454.722 223.118 441.467 223.118C428.213 223.118 417.467 233.863 417.467 247.118C417.467 260.373 428.213 271.118 441.467 271.118Z" fill="#294ABD"/>
<path d="M377.134 340.118C390.389 340.118 401.134 329.373 401.134 316.118C401.134 302.863 390.389 292.118 377.134 292.118C363.879 292.118 353.134 302.863 353.134 316.118C353.134 329.373 363.879 340.118 377.134 340.118Z" fill="#6663ED"/>
<path d="M505.31 409C518.565 409 529.31 398.255 529.31 385C529.31 371.745 518.565 361 505.31 361C492.055 361 481.31 371.745 481.31 385C481.31 398.255 492.055 409 505.31 409Z" fill="#6663ED"/>
<path d="M408.799 408.979C439.975 410.293 465.701 400.623 466.26 387.38C466.818 374.137 441.998 362.336 410.821 361.021C379.645 359.706 353.919 369.376 353.36 382.619C352.802 395.862 377.622 407.664 408.799 408.979Z" fill="#6663ED"/>
<path d="M505.801 340.118C519.056 340.118 529.801 329.373 529.801 316.118C529.801 302.863 519.056 292.118 505.801 292.118C492.546 292.118 481.801 302.863 481.801 316.118C481.801 329.373 492.546 340.118 505.801 340.118Z" fill="#6663ED"/>
<path d="M441.467 340.118C454.722 340.118 465.467 329.373 465.467 316.118C465.467 302.863 454.722 292.118 441.467 292.118C428.213 292.118 417.467 302.863 417.467 316.118C417.467 329.373 428.213 340.118 441.467 340.118Z" fill="#294ABD"/>
<path d="M446.184 28H216.65C209.844 28 204.31 33.5343 204.31 40.3403V124.66C204.31 131.466 209.844 137 216.65 137H446.184C452.99 137 458.524 131.466 458.524 124.66V40.3403C458.524 33.5343 452.99 28 446.184 28Z" fill="white"/>
<path d="M446.184 28H216.65C209.844 28 204.31 33.5343 204.31 40.3403V124.66C204.31 131.466 209.844 137 216.65 137H446.184C452.99 137 458.524 131.466 458.524 124.66V40.3403C458.524 33.5343 452.99 28 446.184 28ZM457.227 124.66C457.227 130.752 452.276 135.702 446.184 135.702H216.65C210.558 135.702 205.608 130.752 205.608 124.66V40.3403C205.608 34.248 210.558 29.2976 216.65 29.2976H446.184C452.276 29.2976 457.227 34.248 457.227 40.3403V124.66Z" fill="#3F3D56"/>
<path d="M433.417 79H229.417C227.484 79 225.917 80.567 225.917 82.5C225.917 84.433 227.484 86 229.417 86H433.417C435.35 86 436.917 84.433 436.917 82.5C436.917 80.567 435.35 79 433.417 79Z" fill="#2CA045"/>
<path d="M67.952 180.421L65.9076 192.596L84.0383 236.7L93.7659 231.699L84.2979 190.427L82.9371 174.676L67.952 180.421Z" fill="#FFB6B6"/>
<path d="M87.9661 111.929C87.9661 111.929 78.4735 107.33 71.1075 122.868C63.7415 138.405 64.6537 172.482 64.6537 172.482C64.6537 172.482 61.9716 175.036 63.6742 176.824C65.3768 178.612 66.9641 181.45 65.2272 184.721C64.3118 186.445 62.1933 189.818 65.6626 190.776C69.132 191.734 85.3605 187.207 85.3605 187.207C85.3605 187.207 91.4289 184.489 87.9809 182.658C84.5329 180.827 89.389 169.753 89.389 169.753L93.4015 137.761L87.9661 111.929Z" fill="#3434B3"/>
<path d="M95.4195 253.55C99.2297 252.38 100.721 246.23 98.7504 239.812C96.7799 233.395 92.0936 229.142 88.2835 230.312C84.4733 231.482 82.982 237.632 84.9526 244.049C86.9231 250.467 91.6094 254.72 95.4195 253.55Z" fill="#FFB6B6"/>
<path d="M185.278 442.57L194.364 440.131L189.282 403.923L175.871 407.522L185.278 442.57Z" fill="#FFB6B6"/>
<path d="M216.354 434.01C216.765 434.411 217.326 435.909 217.475 436.463C217.932 438.166 216.922 439.917 215.219 440.374L187.079 447.925C185.917 448.237 184.722 447.548 184.411 446.386L184.096 445.214C184.096 445.214 181.759 442.067 183.461 436.958C183.461 436.958 187.935 439.4 191.829 432.649L192.636 429.385L206.227 434.645L212.733 433.731C214.156 433.531 215.325 433.007 216.354 434.01Z" fill="#2F2E41"/>
<path d="M96.2113 442.361L105.619 442.36L110.095 406.072L96.2094 406.073L96.2113 442.361Z" fill="#FFB6B6"/>
<path d="M128.444 442.148C128.737 442.641 128.891 444.233 128.891 444.807C128.891 446.57 127.462 448 125.698 448H96.5632C95.3601 448 94.3849 447.025 94.3849 445.822V444.609C94.3849 444.609 92.9436 440.963 95.911 436.47C95.911 436.47 99.599 439.988 105.11 434.477L106.735 431.533L118.499 440.136L125.019 440.939C126.445 441.115 127.71 440.912 128.444 442.148Z" fill="#2F2E41"/>
<path d="M158.823 226.205L183.561 332.837L195.504 418.996L176.737 421.555L124.7 274.829L112.758 421.555L91.4311 423.261C91.4311 423.261 74.37 249.238 82.0475 227.911L158.823 226.205Z" fill="#2F2E41"/>
<path d="M188.269 100.115L196.805 91.1958L206.607 44.529L195.751 43.1958L180.377 82.6505L172.646 96.4413L188.269 100.115Z" fill="#FFB6B6"/>
<path d="M133.21 145.505C133.21 145.505 141.198 160.235 156.025 151.527C170.852 142.819 186.533 108.535 186.533 108.535C186.533 108.535 189.664 99.8199 192.94 98.0913C194.666 97.1802 199.108 96.1977 196.778 93.4548C194.447 90.712 177.688 84.7155 177.688 84.7155C177.688 84.7155 171.141 83.5519 172.963 87.0045C174.785 90.457 168.801 88.3183 169.405 91.9723C170.009 95.6262 164.543 96.8854 164.543 96.8854L133.21 145.505Z" fill="#3434B3"/>
<path d="M209.983 37.9368C211.961 31.522 210.477 25.3696 206.668 24.195C202.86 23.0205 198.168 27.2685 196.19 33.6833C194.212 40.0981 195.696 46.2505 199.505 47.4251C203.313 48.5996 208.005 44.3516 209.983 37.9368Z" fill="#FFB6B6"/>
<path d="M134.271 94.4736H110.914L109.969 101.838C109.969 101.838 80.5126 109.938 81.2491 114.357C81.9855 118.775 86.4039 192.416 86.4039 192.416L82.7219 229.237C82.7219 229.237 148.999 257.22 159.308 224.082L154.154 185.788C154.154 185.788 166.673 120.248 163.727 117.302C160.781 114.357 136.48 102.574 136.48 102.574L134.271 94.4736Z" fill="#3434B3"/>
<path d="M120.704 94.5652C132.282 94.5652 141.668 85.1793 141.668 73.6012C141.668 62.0231 132.282 52.6372 120.704 52.6372C109.126 52.6372 99.7396 62.0231 99.7396 73.6012C99.7396 85.1793 109.126 94.5652 120.704 94.5652Z" fill="#FFB6B6"/>
<path d="M136.229 64.9775C138.908 64.751 141.586 64.5246 144.265 64.2982C143.344 63.8759 142.385 63.4239 141.772 62.6178C141.158 61.8118 141.032 60.5381 141.773 59.8475C142.639 59.0405 144.073 59.4681 145.019 60.179C144.498 57.4581 142.874 54.965 140.596 53.3889C137.812 51.4636 130.927 53.7594 127.572 53.3174C123.701 52.8074 123.218 49.5068 119.347 48.9968C117.888 48.8047 116.245 48.6597 115.098 49.5815C113.825 50.6038 113.683 52.5367 112.56 53.7215C110.957 55.4133 108.209 54.9142 105.928 55.3901C102.696 56.0644 100.261 58.8978 99.1356 62.0011C98.0106 65.1044 97.9692 68.4797 97.9404 71.7806C97.9083 75.4799 97.8967 79.7624 100.572 82.3174C102.202 83.874 106.642 89.2145 107.122 91.4168C107.463 92.9808 121.356 94.8857 124.367 94.7991L134.63 91.4168C135.639 86.9754 133.97 78.1894 131.572 74.3174C132.362 75.3605 136.014 78.5006 136.572 77.3174C137.131 76.1342 136.877 72.4257 137.572 71.3174C138.45 69.9185 134.584 65.1166 136.229 64.9775Z" fill="#2F2E41"/>
</g>
<defs>
<clipPath id="clip0_54_2">
<rect width="564.468" height="449.265" fill="white"/>
</clipPath>
</defs>
</svg>
