<svg width="162" height="475" viewBox="0 0 219 532" fill="none" xmlns="http://www.w3.org/2000/svg">
<path d="M43.512 516.661H56.985L63.395 464.694L43.51 464.695L43.512 516.661Z" fill="#FFB7B7"/>
<path d="M40.0757 512.263L66.6087 512.262H66.6097C71.0941 512.262 75.3948 514.044 78.5658 517.215C81.7367 520.386 83.5183 524.686 83.5186 529.171V529.72L40.0765 529.722L40.0757 512.263Z" fill="#2F2E41"/>
<path d="M132.512 516.661H145.985L152.395 464.694L132.51 464.695L132.512 516.661Z" fill="#FFB7B7"/>
<path d="M129.076 512.263L155.609 512.262H155.61C160.094 512.262 164.395 514.044 167.566 517.215C170.737 520.386 172.518 524.686 172.519 529.171V529.72L129.077 529.722L129.076 512.263Z" fill="#2F2E41"/>
<path d="M219 531.31H0V530.31H219V531.31Z" fill="#E6E6E6"/>
<path d="M32.231 505.392H67.132L89.4389 310.069L130.453 505.392H154.002V272.476L42.0379 238.968L32.231 505.392Z" fill="#2F2E41"/>
<path d="M91.7395 67.1114C108.549 67.1114 122.175 53.4848 122.175 36.6755C122.175 19.8661 108.549 6.2395 91.7395 6.2395C74.9302 6.2395 61.3036 19.8661 61.3036 36.6755C61.3036 53.4848 74.9302 67.1114 91.7395 67.1114Z" fill="#FFB7B7"/>
<path d="M44.4902 243.872C77.1479 269.412 113.196 282.286 154.002 277.38C136.768 216.868 131.656 156.815 148.281 97.584L113.957 82.0562L75.3733 79.6045L47.3308 87.8523C43.386 89.0138 39.9325 91.4399 37.5019 94.757C35.0714 98.0741 33.7987 102.098 33.8799 106.21C34.87 156.723 31.5116 203.997 44.4902 243.872Z" fill="#E6E6E6"/>
<path d="M62.6101 21.37C65.5383 15.8455 69.2587 4.83516 75.1686 2.79317C78.4506 1.7049 81.8428 0.982271 85.2834 0.6384L95.3288 4.50203L89.8616 0.249911C90.926 0.186491 91.9899 0.134636 93.0531 0.0943629L99.8309 2.70116L96.3633 0.00416819C102.682 -0.0606818 109.204 0.59633 114.101 4.44298C118.275 7.72224 122.41 20.1448 123.079 25.4104C123.794 30.4478 123.543 35.5751 122.342 40.519L120.625 42.1511C120.025 40.7744 119.573 39.3373 119.278 37.8646C118.663 35.1127 117.481 32.5193 115.808 30.2495C114.135 27.9797 112.007 26.0833 109.561 24.6812L109.467 24.6285C106.589 23.0083 103.095 23.083 99.794 23.2018L84.1148 23.766C80.3426 23.9018 76.2805 24.1405 73.3397 26.5067C71.3533 28.1047 70.1631 30.4637 69.0314 32.7478C67.5701 35.6973 64.7144 46.822 64.7144 46.822C64.7144 46.822 63.0988 44.722 62.3244 46.285C61.0826 42.2071 60.3276 37.9967 60.0751 33.7414C59.8281 29.4672 60.7019 25.2026 62.6101 21.37Z" fill="#2F2E41"/>
<path d="M63.6328 263.824C63.6257 262.299 63.2843 260.794 62.6327 259.415C61.981 258.036 61.035 256.817 59.8611 255.843C58.6873 254.87 57.3142 254.165 55.8386 253.779C54.363 253.394 52.8208 253.336 51.3206 253.611L33.055 221.349L25.5186 236.797L42.9747 266.509C43.6034 268.999 45.1235 271.171 47.247 272.615C49.3705 274.059 51.9498 274.673 54.4962 274.343C57.0426 274.012 59.3792 272.758 61.0631 270.82C62.747 268.881 63.6614 266.392 63.6328 263.824Z" fill="#FFB7B7"/>
<path d="M145.305 299.689C144.584 298.345 144.166 296.86 144.082 295.337C143.997 293.814 144.247 292.291 144.815 290.876C145.383 289.46 146.254 288.186 147.367 287.143C148.48 286.101 149.808 285.315 151.258 284.842L151.933 247.774L167.821 258.671L164.744 292.2C165.378 294.689 165.078 297.323 163.899 299.605C162.721 301.886 160.747 303.656 158.351 304.579C155.955 305.502 153.303 305.514 150.899 304.613C148.494 303.712 146.504 301.96 145.305 299.689Z" fill="#FFB7B7"/>
<path d="M34.6832 259.4L47.7592 247.141L41.0486 180.944L48.8125 87.3684C31.9471 92.669 13.8381 106.908 10.8553 124.333L0.186035 186.665L34.6832 259.4Z" fill="#E6E6E6"/>
<path opacity="0.2" d="M42.275 145.393L31.65 187.89L47.759 248.194L37.371 191.159L42.275 145.393Z" fill="black"/>
<path d="M147.464 282.283L168.713 284.735L163.737 126.95C163.515 119.9 161.267 113.063 157.262 107.256C153.258 101.45 147.666 96.919 141.154 94.206L133.571 91.0461L135.614 165.007L147.464 282.283Z" fill="#E6E6E6"/>
<path opacity="0.2" d="M139.509 167.424L147.71 258.486L133.823 168.059L139.509 167.424Z" fill="black"/>
</svg>
