<svg width="123" height="475" viewBox="0 0 183 535" fill="none" xmlns="http://www.w3.org/2000/svg">
<path d="M44.5017 150.255L27.5017 148.255L21.5017 200.255L6.18287 272.063C4.05282 273.1 2.31465 274.798 1.22712 276.902C0.139597 279.007 -0.239142 281.407 0.147289 283.744C0.53372 286.082 1.66463 288.232 3.37172 289.874C5.0788 291.517 7.27077 292.565 9.62129 292.861C11.9718 293.158 14.3552 292.687 16.4167 291.52C18.4782 290.352 20.1075 288.55 21.0621 286.382C22.0167 284.213 22.2456 281.795 21.7147 279.486C21.1837 277.177 19.9214 275.101 18.1155 273.568L33.5017 231.255L44.5017 150.255Z" fill="#FFB6B6"/>
<path d="M69.1968 520.968H55.1908L48.5269 466.943L69.1989 466.944L69.1968 520.968Z" fill="#FFB6B6"/>
<path d="M72.7687 534.545L27.6065 534.544V533.972C27.6068 529.31 29.459 524.84 32.7555 521.543C36.052 518.247 40.523 516.395 45.1849 516.394H45.186L72.7695 516.395L72.7687 534.545Z" fill="#2F2E41"/>
<path d="M176.687 513.329L162.935 515.984L146.147 464.204L166.444 460.285L176.687 513.329Z" fill="#FFB6B6"/>
<path d="M182.769 525.982L138.426 534.545L138.318 533.984C137.434 529.407 138.405 524.666 141.016 520.804C143.628 516.942 147.666 514.276 152.244 513.392L152.245 513.391L179.328 508.161L182.769 525.982Z" fill="#2F2E41"/>
<path d="M47.2353 65.0386L55.3736 80.6522L116.324 67.2088L109.647 36.9364C104.362 12.9747 83.1749 -4.3304 59.2137 0.954531C35.2525 6.23946 24.0716 29.6597 29.3566 53.6214L39.1785 84.2242L49.1161 82.0324L47.2353 65.0386Z" fill="#2F2E41"/>
<path d="M25.5017 237.255C25.5017 237.255 19.5017 267.255 27.5017 311.255C35.5017 355.255 37.5017 374.255 37.5017 374.255C37.5017 374.255 31.5017 381.255 35.5017 385.255C39.5017 389.255 35.5017 397.255 35.5017 397.255L44.5017 494.255L75.5017 489.255L71.5017 398.255C71.5017 398.255 75.5017 390.255 73.5017 388.255C71.5017 386.255 75.5017 374.255 75.5017 374.255L80.5017 279.255L111.502 383.255C111.502 383.255 108.502 387.255 111.502 390.255C114.502 393.255 120.502 408.255 120.502 408.255L140.502 478.255L172.502 472.255L154.502 392.255C154.502 392.255 156.502 387.255 153.502 384.255C152.627 383.337 151.988 382.221 151.639 381.002C151.291 379.782 151.244 378.497 151.502 377.255C151.502 377.255 154.502 374.255 150.502 370.255C146.502 366.255 144.502 350.255 144.502 350.255C144.502 350.255 141.502 243.255 131.502 237.255C121.502 231.255 25.5017 237.255 25.5017 237.255Z" fill="#2F2E41"/>
<path d="M70.7181 71.7939C86.1821 71.7939 98.7181 59.2579 98.7181 43.7939C98.7181 28.33 86.1821 15.7939 70.7181 15.7939C55.2542 15.7939 42.7181 28.33 42.7181 43.7939C42.7181 59.2579 55.2542 71.7939 70.7181 71.7939Z" fill="#FFB6B6"/>
<path d="M110.178 79.6357C110.178 79.6357 130.502 77.2551 136.502 83.2551L130.502 204.255C130.502 204.255 134.502 207.255 132.502 214.255C131.341 218.85 131.341 223.661 132.502 228.255C132.502 228.255 138.502 235.255 135.502 238.255C132.502 241.255 24.5017 239.255 24.5017 239.255C24.5017 239.255 20.5017 232.255 26.5017 228.255C32.5017 224.255 29.5017 213.255 29.5017 213.255C29.5017 213.255 27.5017 210.255 32.5017 205.255C37.5017 200.255 41.5017 159.255 41.5017 159.255L28.5017 109.255C28.5017 109.255 41.5878 94.4845 56.5448 93.3698L110.178 79.6357Z" fill="#E6E6E6"/>
<path d="M43.9943 109.943L28.5017 109.255C28.5017 109.255 19.5017 127.255 18.5017 143.255L12.9943 202.943L48.5017 208.255L43.9943 109.943Z" fill="#E6E6E6"/>
<path d="M46.7297 45.1826L36.3281 31.8008C35.7147 28.9833 36.2415 26.0376 37.7935 23.6074C39.3454 21.1772 41.7962 19.4602 44.6103 18.8315L83.9025 10.165C86.7201 9.55168 89.6658 10.0785 92.0961 11.6304C94.5264 13.1823 96.2437 15.6331 96.8726 18.4472L96.894 18.5439L94.0803 34.7031L93.5862 34.6147C69.2014 30.2671 62.2551 31.7964 47.127 44.8403L46.7297 45.1826Z" fill="#2F2E41"/>
<path d="M151.376 258.995L149.502 180.255L147.502 124.255L123.502 127.255L136.391 261.101C135.019 262.822 134.196 264.915 134.027 267.11C133.858 269.304 134.351 271.498 135.442 273.409C136.533 275.321 138.173 276.86 140.149 277.83C142.124 278.799 144.345 279.154 146.525 278.848C148.704 278.542 150.742 277.589 152.374 276.112C154.006 274.636 155.157 272.704 155.68 270.566C156.202 268.428 156.072 266.183 155.304 264.12C154.537 262.057 153.169 260.272 151.376 258.995Z" fill="#FFB6B6"/>
<path d="M118.994 84.9433L136.502 83.2551C136.502 83.2551 139.502 83.2551 142.502 93.2551C145.502 103.255 161.994 208.943 161.994 208.943L125.502 212.255L118.994 84.9433Z" fill="#E6E6E6"/>
</svg>
